<?xml version="1.0" encoding="UTF-8"?>
<svg version="1.1" xmlns="http://www.w3.org/2000/svg" width="256" height="256">
<path d="M0 0 C1.19456314 0.4631813 2.38912628 0.92636261 3.61988831 1.40357971 C6.79782206 2.63610688 9.97131531 3.87969338 13.14404297 5.12554932 C16.28009274 6.3545391 19.42053513 7.57219289 22.56054688 8.79101562 C27.50591871 10.71259376 32.44417825 12.65110343 37.37841797 14.60107422 C42.16914491 16.49114593 46.97619975 18.32380167 51.80517578 20.11376953 C53.50892113 20.759114 53.50892113 20.759114 55.24708557 21.41749573 C57.36741901 22.22039844 59.49432497 23.00625712 61.62876892 23.77085876 C70.06618022 27.00978765 74.98966622 31.76111063 78.94140625 39.87890625 C82.50136698 48.82444859 83.26969656 57.87928628 83.62890625 67.44140625 C83.66290527 68.30121094 83.6969043 69.16101563 83.73193359 70.046875 C84.57288833 94.53274475 84.57288833 94.53274475 77.06640625 103.50390625 C74.62890625 105.44140625 74.62890625 105.44140625 71.62890625 107.44140625 C72.36379272 109.27300293 72.36379272 109.27300293 73.11352539 111.14160156 C74.92685853 115.6695585 76.72551482 120.20322484 78.51977539 124.73876953 C79.29865266 126.70162464 80.0815108 128.66290494 80.8684082 130.62255859 C81.99828567 133.43834156 83.113763 136.25946291 84.2265625 139.08203125 C84.58170425 139.95821106 84.93684601 140.83439087 85.30274963 141.73712158 C85.6231572 142.55767029 85.94356476 143.37821899 86.27368164 144.22363281 C86.56014053 144.94311096 86.84659943 145.66258911 87.14173889 146.40386963 C87.73196932 148.87245892 87.66650905 150.12184721 86.62890625 152.44140625 C84.8973999 153.61199951 84.8973999 153.61199951 82.60449219 154.56933594 C81.74166122 154.93839554 80.87883026 155.30745514 79.98985291 155.68769836 C79.04058426 156.07564072 78.09131561 156.46358307 77.11328125 156.86328125 C76.12667007 157.28067062 75.1400589 157.69806 74.12355042 158.12809753 C70.88098088 159.4964174 67.63009841 160.84371863 64.37890625 162.19140625 C62.14409948 163.13063618 59.90997179 164.07148353 57.67651367 165.01391602 C53.15769333 166.91956361 48.63621539 168.81868316 44.11279297 170.71337891 C35.79795463 174.20308648 27.52197331 177.78080259 19.25183105 181.37487793 C17.01256118 182.34798485 14.7725752 183.31941863 12.53222656 184.29003906 C11.48683212 184.74327042 11.48683212 184.74327042 10.4203186 185.20565796 C9.07269537 185.78857907 7.72422945 186.36955669 6.37484741 186.94839478 C3.16941817 188.32545244 -0.01455486 189.73227788 -3.17431641 191.21142578 C-15.97614665 197.14139318 -15.97614665 197.14139318 -22.37109375 195.44140625 C-27.64419598 193.36107813 -32.64337911 190.83832299 -37.68359375 188.25390625 C-39.9036644 187.14127702 -42.12693378 186.03521775 -44.3503418 184.92927551 C-45.85380872 184.18083359 -47.35624931 183.43032648 -48.85766602 182.67778015 C-55.67251056 179.26611399 -62.56663078 176.05184187 -69.49609375 172.87890625 C-84.55837271 165.9473396 -99.46767839 158.70674548 -114.37109375 151.44140625 C-114.45279954 134.4245551 -114.45279954 134.4245551 -113.93359375 127.00390625 C-113.85238281 125.76769531 -113.77117187 124.53148437 -113.6875 123.2578125 C-113.37109375 120.44140625 -113.37109375 120.44140625 -112.37109375 119.44140625 C-104.22087485 119.94918587 -96.41332133 121.92960129 -88.4921875 123.8203125 C-87.07026369 124.15564894 -85.64822903 124.4905156 -84.22608948 124.82493591 C-80.51132497 125.6997883 -76.79808595 126.58095008 -73.08514404 127.46350098 C-69.28488894 128.3656018 -65.48320416 129.26163537 -61.68164062 130.15820312 C-54.24339115 131.91338548 -46.80674509 133.6752457 -39.37109375 135.44140625 C-44.60296189 132.76223783 -49.84026745 130.33578481 -55.296875 128.15625 C-56.03466187 127.85836578 -56.77244873 127.56048157 -57.53259277 127.25357056 C-59.91506194 126.29234533 -62.29931266 125.33562703 -64.68359375 124.37890625 C-66.33242179 123.71447451 -67.98110221 123.04967634 -69.62963867 122.38452148 C-72.94925384 121.04525851 -76.26938989 119.70729925 -79.58984375 118.37011719 C-86.46217346 115.60038728 -93.32322824 112.80310796 -100.18359375 110.00390625 C-101.32675049 109.53782959 -102.46990723 109.07175293 -103.64770508 108.59155273 C-106.22230358 107.54183585 -108.79677282 106.49180362 -111.37109375 105.44140625 C-111.46894304 95.04763767 -111.46432461 84.79211148 -110.37109375 74.44140625 C-99.9665472 72.72559711 -89.53576008 71.48447961 -79.05859375 70.31640625 C-77.43161356 70.13305254 -75.80466023 69.94946027 -74.17773438 69.765625 C-70.24249094 69.32147561 -66.3069011 68.88052921 -62.37109375 68.44140625 C-62.93041595 68.35593033 -63.48973816 68.27045441 -64.06600952 68.18238831 C-69.87373396 67.29417455 -75.6807238 66.40127373 -81.48730469 65.50561523 C-83.65606399 65.17172249 -85.82500933 64.83903588 -87.99414062 64.50756836 C-91.10726524 64.03163592 -94.21970073 63.55140688 -97.33203125 63.0703125 C-98.30602875 62.92235733 -99.28002625 62.77440216 -100.28353882 62.6219635 C-101.18432159 62.48189377 -102.08510437 62.34182404 -103.01318359 62.19750977 C-103.80816254 62.07537613 -104.60314148 61.95324249 -105.42221069 61.82740784 C-107.37109375 61.44140625 -107.37109375 61.44140625 -109.37109375 60.44140625 C-109.23245355 56.17030735 -109.08395474 51.89960733 -108.93359375 47.62890625 C-108.89427734 46.41396484 -108.85496094 45.19902344 -108.81445312 43.94726562 C-108.77255859 42.78388672 -108.73066406 41.62050781 -108.6875 40.421875 C-108.63251343 38.81155396 -108.63251343 38.81155396 -108.57641602 37.16870117 C-108.37109375 34.44140625 -108.37109375 34.44140625 -107.37109375 31.44140625 C-105.61328125 30.36083984 -105.61328125 30.36083984 -103.24609375 29.33984375 C-102.3324707 28.94071777 -101.41884766 28.5415918 -100.47753906 28.13037109 C-98.93984863 27.4799585 -98.93984863 27.4799585 -97.37109375 26.81640625 C-95.75219238 26.11765381 -95.75219238 26.11765381 -94.10058594 25.40478516 C-81.53139773 20.01380064 -68.88476294 14.79915253 -56.23461914 9.6015625 C-45.24053464 5.08171504 -45.24053464 5.08171504 -34.3515625 0.31640625 C-33.38508789 -0.11720215 -32.41861328 -0.55081055 -31.42285156 -0.99755859 C-29.75962682 -1.75212955 -28.10307089 -2.5217117 -26.45605469 -3.31103516 C-25.74610352 -3.63249512 -25.03615234 -3.95395508 -24.3046875 -4.28515625 C-23.43928345 -4.69628662 -23.43928345 -4.69628662 -22.55639648 -5.11572266 C-14.75691195 -6.69635777 -7.08136417 -2.79394242 0 0 Z " fill="#111314" transform="translate(137.37109375,33.55859375)"/>
<path d="M0 0 C3.567767 0.7135534 6.38611274 1.4150063 9.71313477 2.68310547 C10.62433578 3.02830231 11.5355368 3.37349915 12.47434998 3.72915649 C13.45347855 4.10470673 14.43260712 4.48025696 15.44140625 4.8671875 C16.46947891 5.25796478 17.49755157 5.64874207 18.55677795 6.05136108 C21.89378155 7.32134055 25.22837741 8.59747748 28.5625 9.875 C29.69137634 10.30695679 30.82025269 10.73891357 31.9833374 11.18395996 C36.52015156 12.92006702 41.05668679 14.6568808 45.59155273 16.39807129 C51.11201936 18.51693278 56.63658583 20.62236136 62.17778015 22.68643188 C64.16364439 23.42726502 66.14668188 24.17511532 68.12866211 24.92626953 C70.3733227 25.77610891 72.62253058 26.6140863 74.87719727 27.43701172 C82.37635511 30.31405873 88.35283542 33.93184663 92.8046875 40.7734375 C97.09246838 51.19556183 98.57712864 60.74321398 99 72 C99.03399902 72.85980469 99.06799805 73.71960938 99.10302734 74.60546875 C99.94398208 99.0913385 99.94398208 99.0913385 92.4375 108.0625 C90 110 90 110 87 112 C87.48992432 113.22106445 87.97984863 114.44212891 88.48461914 115.70019531 C90.29795228 120.22815225 92.09660857 124.76181859 93.89086914 129.29736328 C94.66974641 131.26021839 95.45260455 133.22149869 96.23950195 135.18115234 C97.36937942 137.99693531 98.48485675 140.81805666 99.59765625 143.640625 C99.952798 144.51680481 100.30793976 145.39298462 100.67384338 146.29571533 C100.99425095 147.11626404 101.31465851 147.93681274 101.64477539 148.78222656 C101.93123428 149.50170471 102.21769318 150.22118286 102.51283264 150.96246338 C103.08827131 153.36918737 102.89564707 154.70640363 102 157 C100.00634766 158.28027344 100.00634766 158.28027344 97.4140625 159.359375 C96.48335938 159.75253906 95.55265625 160.14570313 94.59375 160.55078125 C93.6140625 160.94652344 92.634375 161.34226563 91.625 161.75 C90.65304688 162.16121094 89.68109375 162.57242188 88.6796875 162.99609375 C81.45434489 166 81.45434489 166 78 166 C75.16619247 159.09644748 72.33662516 152.19116836 69.51000977 145.28466797 C68.54777185 142.93498327 67.58456118 140.5856967 66.62036133 138.23681641 C65.23523594 134.86204359 63.85360624 131.48585815 62.47265625 128.109375 C62.04034195 127.05820496 61.60802765 126.00703491 61.16261292 124.92401123 C60.56210365 123.45293915 60.56210365 123.45293915 59.94946289 121.95214844 C59.59638565 121.09055115 59.24330841 120.22895386 58.87953186 119.34124756 C58.08922324 117.23750553 57.49002407 115.19056558 57 113 C56.28682617 113.08040527 55.57365234 113.16081055 54.83886719 113.24365234 C46.56062924 114.17512021 38.28095893 115.09304325 30 116 C28.47511963 116.16749756 28.47511963 116.16749756 26.91943359 116.33837891 C24.25941656 116.62778211 21.59871078 116.9093156 18.9375 117.1875 C18.1734082 117.27112793 17.40931641 117.35475586 16.62207031 117.44091797 C10.99515869 118.01648196 5.73508241 118 0 118 C0 102.16 0 86.32 0 70 C16.48235436 71.32922213 32.92822754 72.85339991 49.375 74.5625 C51.54164426 74.7860246 53.70831089 75.00933242 55.875 75.23242188 C59.83266027 75.6400122 63.79016546 76.04905373 67.74755859 76.45922852 C72.8305339 76.98478215 77.91502825 77.49414556 83 78 C82.67 72.72 82.34 67.44 82 62 C79.62256592 61.52054932 77.24513184 61.04109863 74.7956543 60.54711914 C66.94824547 58.96426717 59.10125656 57.37934131 51.25447369 55.79338932 C46.49610359 54.83171821 41.73759373 53.87075021 36.97875977 52.91137695 C32.38784263 51.98582874 27.79729889 51.05844946 23.20701027 50.12978935 C21.45403073 49.7754816 19.70091675 49.42183836 17.94766808 49.06886482 C15.49559791 48.57508365 13.04401263 48.07896055 10.5925293 47.58227539 C9.86460678 47.43625885 9.13668427 47.29024231 8.38670349 47.13980103 C5.51978413 46.55684694 2.7790839 45.9263613 0 45 C0 30.15 0 15.3 0 0 Z " fill="#78E5FE" transform="translate(122,29)"/>
<path d="M0 0 C8.92484653 0.49127596 17.55920031 2.86339843 26.22265625 4.9296875 C27.89449214 5.32495197 29.56640411 5.71989476 31.23838806 6.11453247 C34.72982743 6.93990898 38.22032995 7.76910937 41.71020508 8.60107422 C46.16568174 9.66291482 50.62334341 10.71523055 55.08174992 11.76469231 C58.53061569 12.57762287 61.97827432 13.39558033 65.42559624 14.21503067 C67.06814888 14.60485518 68.71106432 14.99315447 70.35435677 15.37984848 C72.65683381 15.92246538 74.95759725 16.4718497 77.25805664 17.02294922 C78.25968842 17.25688385 78.25968842 17.25688385 79.28155518 17.49554443 C84.09377329 18.65909488 88.28033315 20.23012493 93 22 C93 39.82 93 57.64 93 76 C88.56661685 75.11332337 85.70366692 74.04801573 81.71484375 72.078125 C81.11039932 71.78214417 80.5059549 71.48616333 79.88319397 71.18121338 C78.58020862 70.54272995 77.27844143 69.90175569 75.9777832 69.25854492 C72.47971109 67.52939141 68.97209808 65.81980766 65.46484375 64.109375 C64.39343643 63.58621704 64.39343643 63.58621704 63.30038452 63.05249023 C56.57527282 59.77643054 49.79632813 56.6257912 43 53.5 C27.89817897 46.54295677 12.94531026 39.28576278 -2 32 C-2.08170579 14.98314885 -2.08170579 14.98314885 -1.5625 7.5625 C-1.48128906 6.32628906 -1.40007813 5.09007812 -1.31640625 3.81640625 C-1 1 -1 1 0 0 Z " fill="#52C6FE" transform="translate(25,153)"/>
<path d="M0 0 C0 16.17 0 32.34 0 49 C-14.53707415 47.88176353 -14.53707415 47.88176353 -21.0625 47.125 C-26.56263534 46.4942144 -32.06406083 45.88390921 -37.5703125 45.30859375 C-49.85760683 44.0226447 -62.12357116 42.66730265 -74.3659668 41.00219727 C-80.23417261 40.20700132 -86.10380729 39.55123795 -92 39 C-92.10063784 28.93621607 -92.04397616 19.02348567 -91 9 C-80.98689681 7.35986635 -70.95695505 6.11237803 -60.875 5 C-60.09596313 4.91317963 -59.31692627 4.82635925 -58.51428223 4.73690796 C-45.83212003 3.32952253 -33.15554423 2.23326374 -20.421875 1.39453125 C-17.16113212 1.17741021 -13.94080395 0.89149499 -10.703125 0.44921875 C-7 0 -7 0 0 0 Z " fill="#1495B9" transform="translate(118,99)"/>
<path d="M0 0 C0 14.85 0 29.7 0 45 C-12.10611719 47.84420826 -24.21228196 50.63726633 -36.375 53.2265625 C-37.73100815 53.51537041 -37.73100815 53.51537041 -39.1144104 53.81001282 C-43.61589279 54.76723317 -48.11850598 55.71876925 -52.62255859 56.66381836 C-62.39125551 58.72559943 -72.09439279 60.95298919 -81.76254272 63.44789124 C-87.80621826 65 -87.80621826 65 -90 65 C-89.8613598 60.7289011 -89.71286099 56.45820108 -89.5625 52.1875 C-89.52318359 50.97255859 -89.48386719 49.75761719 -89.44335938 48.50585938 C-89.40146484 47.34248047 -89.35957031 46.17910156 -89.31640625 44.98046875 C-89.27974854 43.90692139 -89.24309082 42.83337402 -89.20532227 41.72729492 C-89 39 -89 39 -88 36 C-86.2421875 34.91943359 -86.2421875 34.91943359 -83.875 33.8984375 C-82.50432373 33.29962769 -82.50432373 33.29962769 -81.10595703 32.6887207 C-80.08099121 32.25519287 -79.05602539 31.82166504 -78 31.375 C-76.38327393 30.67733521 -76.38327393 30.67733521 -74.73388672 29.96557617 C-62.20055495 24.59082756 -49.59122118 19.39033636 -36.984375 14.19091797 C-36.14896179 13.84635559 -35.31354858 13.50179321 -34.45281982 13.14678955 C-32.79169067 12.46212923 -31.13027641 11.7781602 -29.46856689 11.09490967 C-25.17318731 9.32522558 -20.88982005 7.53153449 -16.62011719 5.70068359 C-15.31408035 5.14262276 -15.31408035 5.14262276 -13.98165894 4.57328796 C-12.31749495 3.86065053 -10.6552197 3.14358132 -8.99514771 2.42146301 C-8.2515097 2.10344223 -7.5078717 1.78542145 -6.74169922 1.45776367 C-6.08950409 1.17551437 -5.43730896 0.89326508 -4.76535034 0.60246277 C-3 0 -3 0 0 0 Z " fill="#35AECD" transform="translate(118,29)"/>
<path d="M0 0 C0.98025083 9.05078219 1.30511732 18.09506294 1.5625 27.1875 C1.60581566 28.63086853 1.64943346 30.07422803 1.69335938 31.51757812 C1.79904858 35.01162173 1.90067582 38.50576898 2 42 C-3.0128879 44.16908994 -8.02591542 46.33785679 -13.0390625 48.50634766 C-14.73799244 49.24128884 -16.43688677 49.97631234 -18.13574219 50.71142578 C-22.21766098 52.47768698 -26.3001067 54.24270257 -30.38378906 56.00488281 C-33.34709996 57.28386662 -36.30725874 58.56969259 -39.26464844 59.86230469 C-40.53840066 60.41604046 -41.81216301 60.96975295 -43.0859375 61.5234375 C-44.18728027 62.00474121 -45.28862305 62.48604492 -46.42333984 62.98193359 C-49 64 -49 64 -51 64 C-51 46.18 -51 28.36 -51 10 C-42.12424078 7.78106019 -33.26712591 5.68837037 -24.32519531 3.78295898 C-22.10610901 3.30846061 -19.88904553 2.8251576 -17.671875 2.34179688 C-16.24230318 2.03591718 -14.81261953 1.73055956 -13.3828125 1.42578125 C-12.10809082 1.15161377 -10.83336914 0.87744629 -9.52001953 0.5949707 C-6.2616832 0.04423096 -3.29513842 -0.11566893 0 0 Z " fill="#9AE5FE" transform="translate(173,165)"/>
<path d="M0 0 C3.5809226 0.71618452 6.40595321 1.42334351 9.74487305 2.69897461 C10.6624086 3.04732361 11.57994415 3.39567261 12.52528381 3.75457764 C13.51080734 4.13334045 14.49633087 4.51210327 15.51171875 4.90234375 C16.54562241 5.29617249 17.57952606 5.69000122 18.64476013 6.09576416 C21.99379844 7.37255866 25.3406672 8.65493671 28.6875 9.9375 C30.96911787 10.80866504 33.25085619 11.67951468 35.53271484 12.55004883 C42.02390281 15.02791386 48.51238315 17.51280232 55 20 C55.84665222 20.32444092 56.69330444 20.64888184 57.56561279 20.9831543 C65.38114496 23.97822543 73.19413726 26.97980334 81 30 C78.20301173 32.79698827 75.20513532 32.75693845 71.4375 33.25390625 C70.31686157 33.41257423 70.31686157 33.41257423 69.17358398 33.57444763 C66.78341672 33.91170772 64.39189076 34.23770793 62 34.5625 C59.60838772 34.89253481 57.21715396 35.22495338 54.82641602 35.56126404 C53.33788323 35.77011492 51.84879259 35.97503433 50.35913086 36.17567444 C46.56075655 36.66997242 46.56075655 36.66997242 43 38 C43.73524902 38.42297363 44.47049805 38.84594727 45.22802734 39.28173828 C48.00546656 40.88012946 50.78242565 42.47935093 53.55908203 44.07910156 C54.75160427 44.7659482 55.94430697 45.45248165 57.13720703 46.13867188 C63.05653937 49.54390595 68.97030614 52.95902017 74.8515625 56.4296875 C75.65674316 56.90390137 76.46192383 57.37811523 77.29150391 57.86669922 C77.85530762 58.24068848 78.41911133 58.61467773 79 59 C79 59.33 79 59.66 79 60 C74.10422249 60.12702946 69.71308485 59.71131407 64.91894531 58.73071289 C64.24974564 58.5957692 63.58054596 58.4608255 62.8910675 58.3217926 C60.70202712 57.87863663 58.51511472 57.42581432 56.328125 56.97265625 C54.79843018 56.66062534 53.26862271 56.34914617 51.7387085 56.03819275 C48.54385653 55.38742081 45.34995163 54.73225093 42.15673828 54.07348633 C38.0634244 53.2290675 33.9686073 52.39224282 29.8731575 51.55825138 C25.96179054 50.76143827 22.0511734 49.96097529 18.140625 49.16015625 C17.39519691 49.00780077 16.64976883 48.85544529 15.88175201 48.69847298 C13.77524094 48.26721772 11.66927893 47.83338258 9.56347656 47.39868164 C7.76647308 47.02894981 7.76647308 47.02894981 5.9331665 46.65174866 C3 46 3 46 0 45 C0 30.15 0 15.3 0 0 Z " fill="#8CE0FC" transform="translate(122,29)"/>
<path d="M0 0 C15.50939008 1.25310743 30.9928661 2.6401533 46.47094727 4.23217773 C49.75176799 4.56909997 53.03308084 4.90091876 56.31445312 5.23242188 C58.42190556 5.44761762 60.52932864 5.66310099 62.63671875 5.87890625 C63.6074382 5.97683975 64.57815765 6.07477325 65.57829285 6.17567444 C66.48146744 6.26924728 67.38464203 6.36282013 68.31518555 6.45922852 C69.10217331 6.53979996 69.88916107 6.6203714 70.69999695 6.7033844 C73.16321258 7.02104841 75.57063117 7.48687181 78 8 C78 8.66 78 9.32 78 10 C72.34075557 11.42714682 66.68075374 12.85123476 61.02001953 14.27246094 C59.09337435 14.75664062 57.16694093 15.24166379 55.24072266 15.72753906 C52.47613541 16.42473296 49.7108072 17.1189156 46.9453125 17.8125 C46.0806839 18.03123779 45.2160553 18.24997559 44.32522583 18.4753418 C43.52454681 18.67554932 42.7238678 18.87575684 41.89892578 19.08203125 C41.1927713 19.25968018 40.48661682 19.4373291 39.75906372 19.62036133 C38 20 38 20 36 20 C39.23485983 23.75376226 42.49699656 27.47537391 45.87890625 31.09765625 C46.37350342 31.62907227 46.86810059 32.16048828 47.37768555 32.70800781 C48.36603043 33.7670984 49.35831467 34.82252815 50.35473633 35.87402344 C52.56937854 38.25116887 53.95886002 39.87658005 55 43 C45.76713923 44.39984401 36.54538854 45.54285699 27.24853516 46.43261719 C25.23668056 46.62628215 23.22580542 46.82854584 21.21484375 47.03125 C19.91160156 47.15757812 18.60835937 47.28390625 17.265625 47.4140625 C16.10836914 47.5270166 14.95111328 47.6399707 13.75878906 47.75634766 C9.18141371 48.05306243 4.5869821 48 0 48 C0 32.16 0 16.32 0 0 Z " fill="#96E3FC" transform="translate(122,99)"/>
<path d="M0 0 C0 15.84 0 31.68 0 48 C-5.30206683 47.33724165 -9.05626007 46.85722296 -13.890625 45.22265625 C-14.92960937 44.87396484 -15.96859375 44.52527344 -17.0390625 44.16601562 C-18.62847656 43.61977539 -18.62847656 43.61977539 -20.25 43.0625 C-21.32507813 42.70220703 -22.40015625 42.34191406 -23.5078125 41.97070312 C-29.27445094 40.01853063 -29.27445094 40.01853063 -32 39 C-32.71881348 38.74903564 -33.43762695 38.49807129 -34.17822266 38.23950195 C-36.87959308 36.40154193 -37.39648392 34.29618763 -38.5078125 31.2578125 C-39.15169922 29.53498047 -39.15169922 29.53498047 -39.80859375 27.77734375 C-40.24300781 26.57207031 -40.67742187 25.36679688 -41.125 24.125 C-42.00112419 21.75205721 -42.87866978 19.37963862 -43.7578125 17.0078125 C-44.33233154 15.42444092 -44.33233154 15.42444092 -44.91845703 13.80908203 C-45.91591388 11.06115861 -45.91591388 11.06115861 -47.14013672 8.81201172 C-48 7 -48 7 -48 4 C-43.9258671 3.26880397 -39.91769753 2.78416477 -35.7890625 2.5 C-34.04496094 2.37625 -34.04496094 2.37625 -32.265625 2.25 C-31.06421875 2.1675 -29.8628125 2.085 -28.625 2 C-19.58610732 1.42018768 -19.58610732 1.42018768 -10.5859375 0.4375 C-7 0 -7 0 0 0 Z " fill="#51C3FB" transform="translate(118,99)"/>
<path d="M0 0 C9.63333552 11.50521589 11.47302194 23.81675211 12.0234375 38.46875 C12.05743652 39.32855469 12.09143555 40.18835938 12.12646484 41.07421875 C12.94771459 64.98634344 12.94771459 64.98634344 6.71484375 73.19140625 C4.46645286 75.58657637 2.42483384 77.39839878 -0.921875 77.56640625 C-2.94010417 77.53385417 -4.95833333 77.50130208 -6.9765625 77.46875 C-6.9765625 77.13875 -6.9765625 76.80875 -6.9765625 76.46875 C-5.3265625 76.46875 -3.6765625 76.46875 -1.9765625 76.46875 C-2.1209375 75.40398437 -2.2653125 74.33921875 -2.4140625 73.2421875 C-3.62606377 63.90804934 -4.24546403 54.89524258 -3.9765625 45.46875 C-5.6265625 45.46875 -7.2765625 45.46875 -8.9765625 45.46875 C-8.9765625 45.13875 -8.9765625 44.80875 -8.9765625 44.46875 C-7.3265625 44.46875 -5.6765625 44.46875 -3.9765625 44.46875 C-4.3065625 39.18875 -4.6365625 33.90875 -4.9765625 28.46875 C-6.6265625 28.13875 -8.2765625 27.80875 -9.9765625 27.46875 C-9.9765625 26.80875 -9.9765625 26.14875 -9.9765625 25.46875 C-11.86619486 24.07661803 -11.86619486 24.07661803 -14.33203125 22.7109375 C-15.25935059 22.17106201 -16.18666992 21.63118652 -17.14208984 21.07495117 C-18.13934082 20.50365479 -19.1365918 19.9323584 -20.1640625 19.34375 C-22.18151717 18.17148041 -24.19844592 16.99830525 -26.21484375 15.82421875 C-27.20049316 15.2523584 -28.18614258 14.68049805 -29.20166016 14.09130859 C-32.7835681 11.99687254 -36.32600205 9.84389231 -39.8515625 7.65625 C-40.85960937 7.03105469 -41.86765625 6.40585938 -42.90625 5.76171875 C-43.58945313 5.33503906 -44.27265625 4.90835938 -44.9765625 4.46875 C-41.50452235 2.15405657 -38.48599426 1.72486916 -34.45703125 1.14453125 C-33.72084061 1.03400925 -32.98464996 0.92348724 -32.22615051 0.80961609 C-30.66915103 0.57816925 -29.1115669 0.3506266 -27.5534668 0.12670898 C-25.18139865 -0.21624355 -22.81251571 -0.57699561 -20.44335938 -0.93945312 C-18.92724274 -1.16254434 -17.41097088 -1.38458369 -15.89453125 -1.60546875 C-15.19120163 -1.71372482 -14.48787201 -1.8219809 -13.76322937 -1.93351746 C-8.85325615 -2.61977296 -4.08699631 -3.16621058 0 0 Z " fill="#80DBFE" transform="translate(208.9765625,62.53125)"/>
<path d="M0 0 C1.97856902 3.64621461 3.95398726 7.29411626 5.92651367 10.94360352 C6.59785166 12.18463039 7.27004566 13.4251946 7.94311523 14.6652832 C8.91095309 16.44881908 9.87569059 18.2340014 10.83984375 20.01953125 C11.42113037 21.09307861 12.00241699 22.16662598 12.60131836 23.27270508 C14 26 14 26 15 29 C15.70793701 29.0501123 16.41587402 29.10022461 17.14526367 29.15185547 C32.45163124 30.24225335 47.73190468 31.46173531 63 33 C62.52372025 34.95903745 62.04388577 36.91721097 61.5625 38.875 C61.29566406 39.96554688 61.02882813 41.05609375 60.75390625 42.1796875 C60 45 60 45 59 47 C59.64066406 47.12117188 60.28132813 47.24234375 60.94140625 47.3671875 C66.04928933 48.35679227 71.02250269 49.48510951 76 51 C75.40414792 56.7693614 73.23012403 61.61661536 70.9375 66.875 C70.56044922 67.75414063 70.18339844 68.63328125 69.79492188 69.5390625 C68.86913928 71.69531564 67.93738089 73.84876979 67 76 C66.34 76 65.68 76 65 76 C64.70867187 75.03320312 64.41734375 74.06640625 64.1171875 73.0703125 C60.44981916 61.2626935 56.75161809 51.91834536 46 45 C42.51658637 43.30825836 38.93750909 41.96888427 35.30078125 40.64453125 C34.2793251 40.26051147 33.25786896 39.8764917 32.20545959 39.48083496 C28.91222591 38.24583139 25.61258178 37.02907105 22.3125 35.8125 C20.05176888 34.9683179 17.79151592 34.12285421 15.53173828 33.27612305 C11.07406883 31.60753955 6.61410132 29.94536743 2.15185547 28.2890625 C-5.17300447 25.56792017 -12.47877744 22.79768115 -19.78042603 20.01498413 C-22.65705557 18.91945387 -25.53559583 17.82897351 -28.4140625 16.73828125 C-29.3107666 16.39837158 -30.2074707 16.05846191 -31.13134766 15.70825195 C-32.05633057 15.35766724 -32.05633057 15.35766724 -33 15 C-33 14.01 -33 13.02 -33 12 C-28.94697114 10.28191787 -24.89015262 8.5732208 -20.82958984 6.87304688 C-19.44928265 6.29357064 -18.07003656 5.71155999 -16.69189453 5.12695312 C-14.70880428 4.28624868 -12.72205498 3.45478439 -10.734375 2.625 C-8.94338379 1.87089844 -8.94338379 1.87089844 -7.11621094 1.1015625 C-4 0 -4 0 0 0 Z " fill="#56D6FF" transform="translate(163,8)"/>
<path d="M0 0 C3.47771615 0.69554323 5.91889218 1.24983046 9.0559082 2.58227539 C10.19652458 3.06266014 10.19652458 3.06266014 11.36018372 3.55274963 C12.1655809 3.89756882 12.97097809 4.242388 13.80078125 4.59765625 C15.0553437 5.12823891 15.0553437 5.12823891 16.33525085 5.66954041 C18.99622786 6.7961198 21.6543752 7.92920961 24.3125 9.0625 C26.12025971 9.82920765 27.92820047 10.59548859 29.73632812 11.36132812 C34.15966516 13.23594732 38.5804765 15.11640877 43 17 C43 17.99 43 18.98 43 20 C42.18474854 20.33507568 41.36949707 20.67015137 40.52954102 21.01538086 C37.28854564 22.34782249 34.04776772 23.68079062 30.80712891 25.01409912 C29.31191311 25.62920462 27.81663325 26.24415442 26.32128906 26.85894775 C16.76577976 30.7880223 7.21908274 34.73741116 -2.31640625 38.71484375 C-4.19667385 39.49818133 -6.0769634 40.28146625 -7.95727539 41.06469727 C-10.72678679 42.21835404 -13.49575907 43.37322429 -16.26315308 44.5319519 C-18.85124087 45.61553929 -21.4410605 46.69488574 -24.03125 47.7734375 C-25.19926903 48.26462318 -25.19926903 48.26462318 -26.3908844 48.76573181 C-31.77260412 51 -31.77260412 51 -34 51 C-34 53.64 -34 56.28 -34 59 C-37 58 -37 58 -38.60546875 55.12890625 C-39.12753906 53.95199219 -39.64960937 52.77507813 -40.1875 51.5625 C-40.71730469 50.38816406 -41.24710938 49.21382812 -41.79296875 48.00390625 C-43 45 -43 45 -43 43 C-35.26291674 42.87847513 -27.692641 43.15199233 -20 44 C-20.01160156 43.41734375 -20.02320312 42.8346875 -20.03515625 42.234375 C-20.10993846 35.43987745 -19.65055041 28.76107745 -19 22 C-14.86645178 22.48224729 -11.04458076 22.98885481 -7 24 C-3.535 12.12 -3.535 12.12 0 0 Z " fill="#56D6FF" transform="translate(57,8)"/>
<path d="M0 0 C7.6319167 0.48114257 15.00900776 2.17879114 22.44140625 3.90136719 C24.5206817 4.37975836 26.60376006 4.83837417 28.6875 5.296875 C30.01069196 5.60036471 31.33361969 5.90500934 32.65625 6.2109375 C33.85056641 6.48212402 35.04488281 6.75331055 36.27539062 7.03271484 C37.17451172 7.35191895 38.07363281 7.67112305 39 8 C40.11810972 11.35432916 39.89336013 12.74416112 39.3125 16.1875 C39.03212891 17.88519531 39.03212891 17.88519531 38.74609375 19.6171875 C38.63249512 20.28331055 38.51889648 20.94943359 38.40185547 21.63574219 C37.91712631 24.48757521 37.44486794 27.34138043 36.97265625 30.1953125 C35.98909027 36.13144317 34.9968453 42.0660861 34 48 C29.5064442 47.36557149 25.7551367 45.61371434 21.73046875 43.62109375 C20.70896477 43.12380516 20.70896477 43.12380516 19.66682434 42.61647034 C17.50436406 41.56220945 15.34592482 40.49999442 13.1875 39.4375 C11.71705556 38.71887148 10.24635504 38.0007667 8.77539062 37.28320312 C5.18060006 35.52818637 1.58939289 33.76602819 -2 32 C-2.08170579 14.98314885 -2.08170579 14.98314885 -1.5625 7.5625 C-1.48128906 6.32628906 -1.40007813 5.09007812 -1.31640625 3.81640625 C-1 1 -1 1 0 0 Z " fill="#1494B9" transform="translate(25,153)"/>
<path d="M0 0 C0.66 0 1.32 0 2 0 C2.02692484 2.29160319 2.04636124 4.58329546 2.0625 6.875 C2.07410156 8.15117187 2.08570313 9.42734375 2.09765625 10.7421875 C2 14 2 14 1 16 C1.87640137 16.27674561 2.75280273 16.55349121 3.65576172 16.83862305 C6.74442835 17.91124585 9.57461552 19.14518017 12.5078125 20.58203125 C13.56210449 21.09499756 14.61639648 21.60796387 15.70263672 22.13647461 C16.8320166 22.68956299 17.96139648 23.24265137 19.125 23.8125 C21.56625946 25.00039365 24.0093484 26.18448181 26.453125 27.3671875 C27.39144669 27.82148384 27.39144669 27.82148384 28.34872437 28.28495789 C34.82261567 31.41122628 41.34609098 34.42807377 47.875 37.4375 C57.79334978 42.01702848 67.66397213 46.68423403 77.5 51.4375 C78.6741748 52.00460693 79.84834961 52.57171387 81.05810547 53.15600586 C88.40088077 56.7138617 95.71104995 60.33318146 103 64 C103 64.66 103 65.32 103 66 C98.87723451 67.67223282 94.75143325 69.33684063 90.625 71 C89.449375 71.47695312 88.27375 71.95390625 87.0625 72.4453125 C85.94101563 72.89648438 84.81953125 73.34765625 83.6640625 73.8125 C82.62717285 74.23144531 81.5902832 74.65039062 80.52197266 75.08203125 C78 76 78 76 76 76 C73.88153763 72.19170765 71.76363066 68.38310715 69.64624023 64.57421875 C68.92569024 63.27823516 68.20498793 61.98233625 67.48413086 60.68652344 C66.44865608 58.82509183 65.41372752 56.96335747 64.37890625 55.1015625 C63.44413452 53.42054443 63.44413452 53.42054443 62.49047852 51.70556641 C61.63416954 50.15116574 60.79365313 48.58730627 60 47 C58.00526769 46.54834806 58.00526769 46.54834806 55.57202148 46.40576172 C54.63112167 46.32582977 53.69022186 46.24589783 52.72080994 46.1635437 C51.18645042 46.04778488 51.18645042 46.04778488 49.62109375 45.9296875 C48.058395 45.80075607 48.058395 45.80075607 46.46412659 45.66921997 C43.12257005 45.39558735 39.78012941 45.13516595 36.4375 44.875 C34.17766415 44.69227266 31.91789726 44.50869026 29.65820312 44.32421875 C24.10623219 43.87287198 18.55347848 43.4323795 13 43 C13.60281536 38.43272328 14.41455281 34.33355565 16 30 C15.03964844 29.88785156 14.07929688 29.77570313 13.08984375 29.66015625 C8.46420435 28.99935062 4.04605164 27.72728883 -0.4375 26.4375 C-1.26443359 26.20353516 -2.09136719 25.96957031 -2.94335938 25.72851562 C-4.96338426 25.15636985 -6.98185676 24.57874796 -9 24 C-8.40227336 20.56506424 -7.52472216 17.55768504 -6.15234375 14.35546875 C-5.79462891 13.51435547 -5.43691406 12.67324219 -5.06835938 11.80664062 C-4.50858398 10.51016602 -4.50858398 10.51016602 -3.9375 9.1875 C-3.37192383 7.86202148 -3.37192383 7.86202148 -2.79492188 6.50976562 C-1.86751446 4.33798876 -0.93576366 2.16818633 0 0 Z " fill="#56D6FF" transform="translate(14,174)"/>
<path d="M0 0 C3.12215428 1.35727511 4.93163119 2.78281963 7.06640625 5.421875 C7.90981567 6.45477661 7.90981567 6.45477661 8.77026367 7.50854492 C9.36170166 8.2482251 9.95313965 8.98790527 10.5625 9.75 C11.49122925 10.89529175 11.49122925 10.89529175 12.4387207 12.0637207 C17.58151252 18.42421127 22.64885841 24.84414306 27.67333984 31.29833984 C29.94008309 34.20581139 32.22080467 37.10228698 34.5 40 C37.36956718 43.65048276 40.23743623 47.30227748 43.1015625 50.95703125 C43.60751953 51.60220703 44.11347656 52.24738281 44.63476562 52.91210938 C45.61056559 54.15647813 46.58584612 55.40125443 47.56054688 56.64648438 C49.6746346 59.41463774 49.6746346 59.41463774 52 62 C52.33 45.17 52.66 28.34 53 11 C53.33 11 53.66 11 54 11 C54 28.82 54 46.64 54 65 C49.52211641 64.10442328 46.60855231 63.00074251 42.57421875 61.0078125 C41.95743256 60.70568344 41.34064636 60.40355438 40.70516968 60.0922699 C39.38251997 59.44396589 38.06107989 58.7931892 36.74075317 58.14016724 C33.27344646 56.42586516 29.79692151 54.73049448 26.3203125 53.03515625 C25.6214241 52.69397263 24.92253571 52.352789 24.20246887 52.00126648 C14.22376042 47.14330723 4.11657764 42.56249136 -6 38 C-5.54838199 34.83233858 -5.08746328 31.66609475 -4.625 28.5 C-4.43550781 27.1696875 -4.43550781 27.1696875 -4.2421875 25.8125 C-3.63963888 21.71516937 -2.97992815 17.69786052 -1.9375 13.6875 C-1.14415193 10.56699759 -0.64145105 7.69741259 -0.375 4.5 C-0.30023438 3.6440625 -0.22546875 2.788125 -0.1484375 1.90625 C-0.09945312 1.2771875 -0.05046875 0.648125 0 0 Z " fill="#37B4E5" transform="translate(64,164)"/>
<path d="M0 0 C0.34057669 9.81996112 -0.71153094 19.29046527 -2 29 C-6.70715168 28.4351418 -10.42572908 27.52475697 -15 26 C-16.65 31.61 -18.3 37.22 -20 43 C-28.59025405 40.34134037 -36.79429438 36.81853628 -45.0625 33.3125 C-46.51484404 32.69956186 -47.96731702 32.08692914 -49.41992188 31.47460938 C-52.94811109 29.98659023 -56.47452935 28.49444799 -60 27 C-59 24 -59 24 -56.76049805 22.74829102 C-55.77090088 22.33764404 -54.78130371 21.92699707 -53.76171875 21.50390625 C-52.644021 21.03307617 -51.52632324 20.56224609 -50.37475586 20.07714844 C-49.15796143 19.57731445 -47.94116699 19.07748047 -46.6875 18.5625 C-45.43387533 18.0391646 -44.18070669 17.51473558 -42.92797852 16.98925781 C-40.97157269 16.16903813 -39.01475914 15.34991894 -37.05613708 14.53500366 C-32.35755389 12.57902818 -27.6817463 10.57506449 -23.015625 8.54296875 C-21.7321954 7.98555502 -20.44874841 7.42818134 -19.1652832 6.87084961 C-16.70897655 5.80387456 -14.25483103 4.73231928 -11.80151367 3.65844727 C-10.6901001 3.17819092 -9.57868652 2.69793457 -8.43359375 2.203125 C-7.45447021 1.77676758 -6.47534668 1.35041016 -5.46655273 0.91113281 C-3 0 -3 0 0 0 Z " fill="#56D6FF" transform="translate(216,199)"/>
<path d="M0 0 C-0.77601562 1.06734375 -1.55203125 2.1346875 -2.3515625 3.234375 C-8.39341814 11.5632073 -14.37019194 19.93087745 -20.25 28.375 C-28.64871329 40.39199416 -28.64871329 40.39199416 -32.1875 45.25 C-33.19876953 46.64992188 -33.19876953 46.64992188 -34.23046875 48.078125 C-34.81441406 48.71234375 -35.39835937 49.3465625 -36 50 C-36.99 50 -37.98 50 -39 50 C-40.68579102 47.96801758 -40.68579102 47.96801758 -42.50390625 45.14453125 C-43.16197266 44.12939453 -43.82003906 43.11425781 -44.49804688 42.06835938 C-45.17931641 40.99392578 -45.86058594 39.91949219 -46.5625 38.8125 C-47.24763672 37.75740234 -47.93277344 36.70230469 -48.63867188 35.61523438 C-51.50066827 31.16355205 -54.17329624 26.98741543 -56 22 C-47.34649746 17.50245591 -38.53078015 13.60825069 -29.5 9.9375 C-28.25893798 9.42946767 -27.018052 8.92100507 -25.77734375 8.41210938 C-23.35447809 7.41906847 -20.9300366 6.42986218 -18.50390625 5.44482422 C-16.16802101 4.48162962 -13.84223845 3.49356071 -11.52734375 2.48095703 C-10.45613281 2.01415527 -9.38492188 1.54735352 -8.28125 1.06640625 C-7.33314453 0.64431885 -6.38503906 0.22223145 -5.40820312 -0.21264648 C-3 -1 -3 -1 0 0 Z " fill="#117088" transform="translate(118,30)"/>
<path d="M0 0 C6.05697156 0 10.84970582 0.12128968 16.66015625 1.09375 C17.67317055 1.26022034 17.67317055 1.26022034 18.70664978 1.43005371 C20.82645207 1.77996922 22.94442795 2.13977544 25.0625 2.5 C26.51486403 2.74154732 27.96733741 2.9824381 29.41992188 3.22265625 C32.94790745 3.80754012 36.47433025 4.40129535 40 5 C38.09063224 9.08842336 35.38838645 12.25027473 32.4375 15.625 C31.63058716 16.55759644 31.63058716 16.55759644 30.80737305 17.5090332 C27.68430992 21.10721395 24.51639205 24.66095451 21.3125 28.1875 C17.43300494 32.45985531 13.78234316 36.88927677 10.1484375 41.37109375 C4.05740535 48.82430218 4.05740535 48.82430218 1 52 C0.67 52 0.34 52 0 52 C0 34.84 0 17.68 0 0 Z " fill="#BEF0FE" transform="translate(122,176)"/>
<path d="M0 0 C5.33545836 4.00159377 10.21437762 7.87937749 15 12.4375 C16.2231738 13.58807419 17.44712583 14.73782164 18.671875 15.88671875 C19.24873047 16.4286084 19.82558594 16.97049805 20.41992188 17.52880859 C22.9100558 19.84734182 25.47146705 22.07809221 28.046875 24.30078125 C32.08121697 27.81065876 36.03267298 31.4147721 40 35 C39.505 35.99 39.505 35.99 39 37 C36.6196916 37.60751923 34.30967083 38.08932934 31.89453125 38.5078125 C30.81929451 38.70333206 30.81929451 38.70333206 29.72233582 38.90280151 C28.20065229 39.17751793 26.67818313 39.44791176 25.1550293 39.71435547 C22.83764279 40.12059248 20.52330766 40.54154313 18.20898438 40.96484375 C16.72932531 41.23005327 15.24951187 41.49440328 13.76953125 41.7578125 C12.73793633 41.94526535 12.73793633 41.94526535 11.6855011 42.13650513 C7.64766641 42.8350963 4.1624297 43 0 43 C0 28.81 0 14.62 0 0 Z " fill="#B9EFFE" transform="translate(122,30)"/>
<path d="M0 0 C3.23938524 1.29575409 6.03885452 2.47716212 9.0390625 4.13671875 C9.77979004 4.54599609 10.52051758 4.95527344 11.28369141 5.37695312 C12.44263916 6.02567383 12.44263916 6.02567383 13.625 6.6875 C14.4195459 7.13158203 15.2140918 7.57566406 16.03271484 8.03320312 C29.9807441 15.88374873 29.9807441 15.88374873 34 19 C34 19.66 34 20.32 34 21 C31.93146021 22.76656317 29.85392015 24.42350748 27.6875 26.0625 C26.39501483 27.05622799 25.10335755 28.05103364 23.8125 29.046875 C23.16667969 29.54380859 22.52085937 30.04074219 21.85546875 30.55273438 C18.42946471 33.22501753 15.11395729 36.03113227 11.79296875 38.83203125 C8.01560758 41.7641088 3.97869157 44.34753896 0 47 C0 31.49 0 15.98 0 0 Z " fill="#BFF0FE" transform="translate(122,100)"/>
<path d="M0 0 C0.33 0 0.66 0 1 0 C1 14.52 1 29.04 1 44 C-5.125625 45.4540625 -5.125625 45.4540625 -11.375 46.9375 C-12.64134277 47.24163818 -13.90768555 47.54577637 -15.21240234 47.85913086 C-21.80392988 49.4011382 -28.24089834 50.56053283 -35 51 C-33.48993048 46.4867585 -30.97120499 42.99872083 -28.125 39.25 C-27.12753061 37.91378622 -26.13148933 36.57650543 -25.13671875 35.23828125 C-24.62028809 34.54428223 -24.10385742 33.8502832 -23.57177734 33.13525391 C-20.97424128 29.60651044 -18.4556402 26.02312598 -15.9375 22.4375 C-14.94010516 21.02083263 -13.94270934 19.60416596 -12.9453125 18.1875 C-11.46806979 16.08748852 -9.99107601 13.98730341 -8.51464844 11.88671875 C-7.11720001 9.90131376 -5.71540619 7.91905069 -4.3125 5.9375 C-3.89025146 5.33542725 -3.46800293 4.73335449 -3.03295898 4.11303711 C-2.04709233 2.72385202 -1.02723578 1.35888003 0 0 Z " fill="#54C2F7" transform="translate(117,30)"/>
<path d="M0 0 C1.55635272 3.73203519 3.10429973 7.46743692 4.64477539 11.20605469 C5.16920757 12.47554557 5.6958668 13.74411895 6.22485352 15.01171875 C6.98788889 16.84127765 7.74207752 18.67451813 8.49609375 20.5078125 C8.95169678 21.60754395 9.4072998 22.70727539 9.87670898 23.84033203 C10.96810535 26.9102846 11.5731839 29.77658291 12 33 C12.53375244 33.12310547 13.06750488 33.24621094 13.61743164 33.37304688 C16.50136082 34.13192895 19.29662271 35.07407401 22.12109375 36.03125 C23.30380859 36.42957031 24.48652344 36.82789063 25.70507812 37.23828125 C28.18985401 38.07824212 30.67423071 38.9193848 33.15820312 39.76171875 C34.34220703 40.16003906 35.52621094 40.55835938 36.74609375 40.96875 C38.36535767 41.51692383 38.36535767 41.51692383 40.01733398 42.07617188 C42.6736317 42.89891318 45.26441657 43.516151 48 44 C48 44.33 48 44.66 48 45 C39.4422574 44.42545191 30.93008164 43.57972946 22.41015625 42.609375 C15.56863704 41.83201977 8.7215926 41.10605124 1.875 40.375 C0.61034912 40.23980957 -0.65430176 40.10461914 -1.95727539 39.96533203 C-4.97148422 39.64324714 -7.98572474 39.32146257 -11 39 C-11 38.67 -11 38.34 -11 38 C-5.06 36.68 0.88 35.36 7 34 C-3.12546897 31.8183627 -3.12546897 31.8183627 -13.375 30.4375 C-14.57125 30.293125 -15.7675 30.14875 -17 30 C-17.33 29.34 -17.66 28.68 -18 28 C-14.04 25.03 -10.08 22.06 -6 19 C-9.54764988 15.45235012 -12.9368509 12.31603602 -16.8125 9.1875 C-17.78832031 8.39730469 -18.76414063 7.60710937 -19.76953125 6.79296875 C-20.50558594 6.20128906 -21.24164063 5.60960938 -22 5 C-21.67 4.01 -21.34 3.02 -21 2 C-18.06271706 1.66465271 -15.12520182 1.33163987 -12.1875 1 C-11.35412109 0.90460938 -10.52074219 0.80921875 -9.66210938 0.7109375 C-8.45844727 0.57558594 -8.45844727 0.57558594 -7.23046875 0.4375 C-6.12288208 0.31181641 -6.12288208 0.31181641 -4.99291992 0.18359375 C-3 0 -3 0 0 0 Z " fill="#12728A" transform="translate(70,103)"/>
<path d="M0 0 C3.3847886 8.33178733 6.33508535 16.78642997 9.1875 25.3125 C9.53232422 26.33794922 9.87714844 27.36339844 10.23242188 28.41992188 C12.05486089 33.90863742 13.68765863 39.36702705 15 45 C10.14395972 41.40071662 6.89141709 37.16200687 3.28125 32.36328125 C0.78277683 29.77496572 -0.47404587 29.26692963 -4 29 C-4 28.34 -4 27.68 -4 27 C-5.88963236 25.60786803 -5.88963236 25.60786803 -8.35546875 24.2421875 C-9.28278809 23.70231201 -10.21010742 23.16243652 -11.16552734 22.60620117 C-12.16277832 22.03490479 -13.1600293 21.4636084 -14.1875 20.875 C-16.20495467 19.70273041 -18.22188342 18.52955525 -20.23828125 17.35546875 C-21.22393066 16.7836084 -22.20958008 16.21174805 -23.22509766 15.62255859 C-26.8070056 13.52812254 -30.34943955 11.37514231 -33.875 9.1875 C-34.88304687 8.56230469 -35.89109375 7.93710938 -36.9296875 7.29296875 C-37.61289063 6.86628906 -38.29609375 6.43960938 -39 6 C-35.6249665 3.74997767 -33.5971492 3.47226074 -29.609375 2.9296875 C-28.34222656 2.75566406 -27.07507813 2.58164062 -25.76953125 2.40234375 C-24.77880615 2.27255127 -24.77880615 2.27255127 -23.76806641 2.14013672 C-21.76975575 1.87759554 -19.77359656 1.60192825 -17.77734375 1.32421875 C-11.79259616 0.5177634 -6.0486043 -0.09917323 0 0 Z " fill="#67E2FE" transform="translate(203,61)"/>
<path d="M0 0 C-4.16032236 6.06218401 -8.94917662 11.07449392 -14.17285156 16.20410156 C-17.79112031 19.76424552 -21.21104117 23.41470869 -24.5078125 27.27734375 C-26.87725833 30.01275111 -29.34922251 32.53416048 -32 35 C-32.66 35 -33.32 35 -34 35 C-35.5540382 31.24870219 -37.10209623 27.49499757 -38.64477539 23.73901367 C-39.1698495 22.46295582 -39.69652193 21.18755439 -40.22485352 19.9128418 C-40.98618831 18.07516187 -41.74120938 16.23487028 -42.49609375 14.39453125 C-42.95169678 13.28956299 -43.4072998 12.18459473 -43.87670898 11.04614258 C-44.872179 8.34662522 -45.53674187 5.83255842 -46 3 C-39.66752155 1.87355801 -33.34630709 1.41053934 -26.9375 0.9375 C-25.78572266 0.84662109 -24.63394531 0.75574219 -23.44726562 0.66210938 C-15.61686637 0.07801341 -7.85089728 -0.10993373 0 0 Z " fill="#79D7FC" transform="translate(116,100)"/>
<path d="M0 0 C4.82351664 3.4203118 9.13471041 6.99829511 13.25 11.2421875 C14.93952399 12.93925401 16.68283095 14.50380759 18.5 16.0625 C21.27698963 18.44744404 23.97247025 20.90068545 26.6328125 23.4140625 C27.61604492 24.34206665 27.61604492 24.34206665 28.61914062 25.28881836 C29.93120071 26.53077203 31.23994085 27.77624487 32.54492188 29.02563477 C36.17048204 32.45372124 39.75708107 35.36939026 44 38 C43 41 43 41 41.00634766 42.16674805 C40.15089355 42.52808838 39.29543945 42.88942871 38.4140625 43.26171875 C37.48335937 43.65810547 36.55265625 44.05449219 35.59375 44.46289062 C34.6140625 44.86701172 33.634375 45.27113281 32.625 45.6875 C31.65304688 46.10322266 30.68109375 46.51894531 29.6796875 46.94726562 C22.42129772 50 22.42129772 50 19 50 C16.28681404 43.36436859 13.58173523 36.72547548 10.88232422 30.08422852 C9.96264966 27.82435001 9.0411072 25.56523074 8.11767578 23.30688477 C6.79230278 20.06463235 5.47362469 16.81972778 4.15625 13.57421875 C3.74064819 12.56163498 3.32504639 11.54905121 2.89685059 10.50578308 C2.32625916 9.09465996 2.32625916 9.09465996 1.74414062 7.6550293 C1.40660767 6.82674118 1.06907471 5.99845306 0.72131348 5.14506531 C0 3 0 3 0 0 Z " fill="#8DDEFD" transform="translate(181,145)"/>
<path d="M0 0 C3 1 3 1 4.73339844 4.43066406 C5.37104792 5.95388372 5.99548287 7.48267639 6.609375 9.015625 C6.9404425 9.82360535 7.27151001 10.63158569 7.61260986 11.46405029 C8.31060876 13.17674233 9.00290181 14.89176906 9.68994141 16.60888672 C10.74299781 19.23255419 11.82126937 21.84480456 12.90234375 24.45703125 C13.57707609 26.12176632 14.2503031 27.78711247 14.921875 29.453125 C15.24573181 30.23351135 15.56958862 31.01389771 15.90325928 31.81793213 C18.70009939 38.91012025 18.70009939 38.91012025 17 43 C14.1640625 45.01953125 14.1640625 45.01953125 10.625 46.8125 C9.46226562 47.41707031 8.29953125 48.02164063 7.1015625 48.64453125 C4 50 4 50 1 50 C-0.75928524 46.23962838 -2.44951583 42.45696575 -4.08422852 38.64135742 C-4.64791376 37.35060693 -5.22908332 36.06733608 -5.82836914 34.79272461 C-7.79000729 30.60232465 -9.39142928 26.62984109 -10 22 C-8.73306731 18.60531389 -7.19595639 16.28241307 -4.8984375 13.49414062 C-1.83904144 9.47474889 -0.99084495 4.87873178 0 0 Z " fill="#56D6FF" transform="translate(229,123)"/>
<path d="M0 0 C-3.98009143 5.34846492 -7.98047548 10.68110551 -12 16 C-12.78383057 17.03930664 -12.78383057 17.03930664 -13.58349609 18.09960938 C-15.04671323 20.0317883 -16.52120347 21.95472984 -18 23.875 C-18.6657605 24.75696045 -18.6657605 24.75696045 -19.3449707 25.65673828 C-21.61784978 28.58291294 -23.47173416 30.70956944 -27 32 C-43.21513848 16.07849582 -43.21513848 16.07849582 -46 10 C-41.91410145 8.89810776 -37.82441586 7.81118554 -33.73339844 6.72851562 C-31.72245486 6.19255138 -29.71288403 5.65142993 -27.70410156 5.10742188 C-24.07589837 4.12521757 -20.44443438 3.15580651 -16.8125 2.1875 C-15.61842529 1.86128662 -14.42435059 1.53507324 -13.1940918 1.19897461 C-12.06398682 0.89999268 -10.93388184 0.60101074 -9.76953125 0.29296875 C-8.75479736 0.0199292 -7.74006348 -0.25311035 -6.69458008 -0.53442383 C-4.02581205 -0.99554013 -2.52322982 -0.89393354 0 0 Z " fill="#71E4FF" transform="translate(204,109)"/>
<path d="M0 0 C8.74039208 1.45238474 17.35025441 3.37904194 25.97167969 5.40405273 C28.25827473 5.93943745 30.54700755 6.46493424 32.8359375 6.99023438 C34.31264082 7.33533548 35.78920834 7.6810183 37.265625 8.02734375 C38.27523285 8.25719215 38.27523285 8.25719215 39.30523682 8.49168396 C43.81060459 9.56432522 47.8054876 11.08571905 52 13 C47.03480912 16.90766019 41.46776819 19.7299475 35.9375 22.75 C34.83599609 23.36488281 33.73449219 23.97976562 32.59960938 24.61328125 C31.54451172 25.18949219 30.48941406 25.76570313 29.40234375 26.359375 C28.43804443 26.89014648 27.47374512 27.42091797 26.48022461 27.96777344 C24 29 24 29 21 28 C19.20432367 25.9099505 17.52961877 23.82186705 15.875 21.625 C14.89694984 20.34940357 13.91776652 19.07467525 12.9375 17.80078125 C12.44765625 17.16221191 11.9578125 16.52364258 11.453125 15.86572266 C8.62455902 12.23401882 5.64552239 8.7269812 2.6796875 5.20703125 C1 3 1 3 0 0 Z " fill="#79D8FE" transform="translate(65,162)"/>
<path d="M0 0 C0.98305095 8.57925302 1.12065202 17.05863557 1.0625 25.6875 C1.05798828 26.97333984 1.05347656 28.25917969 1.04882812 29.58398438 C1.03716001 32.72270653 1.02079015 35.86132728 1 39 C-1.02545063 36.4207124 -2.64682748 33.92646129 -4.04296875 30.9609375 C-4.39423828 30.21585938 -4.74550781 29.47078125 -5.10742188 28.703125 C-5.46384766 27.93484375 -5.82027344 27.1665625 -6.1875 26.375 C-6.55552734 25.59898437 -6.92355469 24.82296875 -7.30273438 24.0234375 C-10 18.2585952 -10 18.2585952 -10 16 C-10.69738281 15.97421875 -11.39476562 15.9484375 -12.11328125 15.921875 C-25.18728777 15.21948637 -38.07624669 13.0122572 -51 11 C-47.67223705 8.78149137 -45.20467438 8.21028617 -41.3125 7.34375 C-40.32588379 7.12205139 -40.32588379 7.12205139 -39.31933594 6.89587402 C-37.92464833 6.58371788 -36.52928075 6.27458659 -35.13330078 5.96826172 C-33.03398035 5.50745872 -30.93679994 5.03783802 -28.83984375 4.56640625 C-6.76720342 -0.36579478 -6.76720342 -0.36579478 0 0 Z " fill="#8ADCF8" transform="translate(173,165)"/>
<path d="M0 0 C3.55600942 1.44303229 5.07868482 3.12738628 7.1796875 6.3046875 C7.77249512 7.18922607 8.36530273 8.07376465 8.97607422 8.98510742 C9.91604248 10.41560425 9.91604248 10.41560425 10.875 11.875 C12.20700303 13.8693787 13.54036964 15.86284729 14.875 17.85546875 C15.55433594 18.87302246 16.23367187 19.89057617 16.93359375 20.93896484 C20.75886448 26.60546347 24.72580629 32.17332357 28.69482422 37.73974609 C29.2467041 38.52043457 29.79858398 39.30112305 30.3671875 40.10546875 C30.85300293 40.78762451 31.33881836 41.46978027 31.83935547 42.17260742 C33 44 33 44 34 47 C29.47876456 45.59727316 25.32497843 43.8130426 21.0703125 41.7421875 C20.43511688 41.43427277 19.79992126 41.12635803 19.14547729 40.80911255 C17.13696251 39.83450633 15.13096259 38.85484669 13.125 37.875 C11.75537199 37.20929859 10.38558185 36.54393067 9.015625 35.87890625 C5.67520006 34.25645542 2.33700953 32.62946613 -1 31 C-1.09225513 14.19931663 -1.09225513 14.19931663 -0.5 6.5 C-0.4071875 5.2521875 -0.314375 4.004375 -0.21875 2.71875 C-0.1465625 1.8215625 -0.074375 0.924375 0 0 Z " fill="#117088" transform="translate(24,154)"/>
<path d="M0 0 C4.96662764 4.115746 9.41297479 8.42035659 13.75 13.1875 C19.05426072 18.95511485 24.4812586 24.5479731 30.0859375 30.0234375 C32 32 32 32 32 33 C20.89457165 32.5166022 9.99464496 31.67027792 -1 30 C-1.10055982 19.94401799 -1.09945892 10.01292948 0 0 Z " fill="#12758D" transform="translate(27,108)"/>
<path d="M0 0 C0.33 0 0.66 0 1 0 C1.33919096 3.66614909 1.67028081 7.3329879 2 11 C2.09539062 12.02996094 2.19078125 13.05992188 2.2890625 14.12109375 C2.79321351 19.77478726 3.109151 25.32414798 3 31 C-0.74944556 31.50421729 -4.49963913 32.00264031 -8.25 32.5 C-9.31347656 32.64308594 -10.37695312 32.78617188 -11.47265625 32.93359375 C-13.00986328 33.13662109 -13.00986328 33.13662109 -14.578125 33.34375 C-15.52075195 33.46943359 -16.46337891 33.59511719 -17.43457031 33.72460938 C-20 34 -20 34 -24 34 C-23.39147137 30.684441 -22.24896765 28.71672575 -20.15625 26.09375 C-19.57319092 25.35495605 -18.99013184 24.61616211 -18.3894043 23.85498047 C-17.76590088 23.07783691 -17.14239746 22.30069336 -16.5 21.5 C-15.22433466 19.88875335 -13.94959718 18.27677165 -12.67578125 16.6640625 C-12.05010254 15.87418945 -11.42442383 15.08431641 -10.77978516 14.27050781 C-7.62277071 10.24304082 -4.59943089 6.11900185 -1.57421875 1.9921875 C-1.05472656 1.33476563 -0.53523438 0.67734375 0 0 Z " fill="#98E5FF" transform="translate(204,108)"/>
<path d="M0 0 C8.92082036 0.64878694 17.32619011 2.88277082 26 5 C25.34 14.24 24.68 23.48 24 33 C18.37875582 27.37875582 18.37875582 27.37875582 16.38671875 24.3984375 C15.94690674 23.74818604 15.50709473 23.09793457 15.05395508 22.42797852 C14.6030249 21.75049561 14.15209473 21.0730127 13.6875 20.375 C12.7278447 18.95356059 11.76689813 17.53299213 10.8046875 16.11328125 C10.33385742 15.41799316 9.86302734 14.72270508 9.37792969 14.00634766 C6.7984084 10.2504111 4.08213334 6.59741778 1.36328125 2.94140625 C0 1 0 1 0 0 Z " fill="#299BBF" transform="translate(25,153)"/>
<path d="M0 0 C0.33 0 0.66 0 1 0 C1 13.53 1 27.06 1 41 C-0.65 39.35 -2.3 37.7 -4 36 C-5.0363012 35.07870992 -6.08364885 34.16946209 -7.1484375 33.28125 C-7.67824219 32.82363281 -8.20804687 32.36601563 -8.75390625 31.89453125 C-9.84816648 30.95320377 -10.95269549 30.02370141 -12.06640625 29.10546875 C-15.94547892 25.70529394 -15.94547892 25.70529394 -16.18359375 22.625 C-14.48995242 18.86880536 -12.18444021 15.76249627 -9.6875 12.5 C-8.95756836 11.52353516 -8.95756836 11.52353516 -8.21289062 10.52734375 C-5.54167189 6.96811555 -2.86323332 3.40705109 0 0 Z " fill="#7CD9FD" transform="translate(116,32)"/>
<path d="M0 0 C-0.26153121 5.05398592 -0.52818494 10.10766591 -0.79956055 15.16113281 C-0.89113465 16.87980854 -0.98131586 18.59855907 -1.07006836 20.31738281 C-1.19798308 22.78992429 -1.33092724 25.26215222 -1.46484375 27.734375 C-1.50343002 28.50118591 -1.5420163 29.26799683 -1.58177185 30.05804443 C-1.7724961 33.49612724 -2.09473118 36.68099662 -3 40 C-3.66 40 -4.32 40 -5 40 C-6.73941066 35.78733513 -8.46635065 31.56985676 -10.18188477 27.34741211 C-10.76734071 25.91144627 -11.35619233 24.47686005 -11.94848633 23.04370117 C-12.79883062 20.9844852 -13.63687514 18.92063095 -14.47265625 16.85546875 C-14.74030289 16.21473923 -15.00794952 15.5740097 -15.28370667 14.91386414 C-17.11387171 10.34161512 -17.11387171 10.34161512 -16 7 C-13.1640625 5.17578125 -13.1640625 5.17578125 -9.625 3.3125 C-8.46226563 2.68988281 -7.29953125 2.06726563 -6.1015625 1.42578125 C-3 0 -3 0 0 0 Z " fill="#56D6FF" transform="translate(22,85)"/>
<path d="M0 0 C2.77438456 3.36783376 5.23600712 6.79683668 7.56640625 10.484375 C8.21673828 11.50144531 8.86707031 12.51851562 9.53710938 13.56640625 C10.89557446 15.70169852 12.24969488 17.83976062 13.59960938 19.98046875 C14.24865234 20.99238281 14.89769531 22.00429687 15.56640625 23.046875 C16.15365479 23.97338867 16.74090332 24.89990234 17.34594727 25.85449219 C18.89345064 28.27462412 18.89345064 28.27462412 22 29 C18.15391272 30.45628548 15.57271455 29.50008201 11.75 28.25 C10.59757812 27.87617187 9.44515625 27.50234375 8.2578125 27.1171875 C5.69663207 26.23889301 3.15525082 25.33748757 0.625 24.375 C-2.89859688 23.03846325 -6.36708559 21.98391432 -10 21 C-9.4527072 16.43352568 -7.46510576 13.1502319 -5 9.375 C-2.09316341 4.89917129 -2.09316341 4.89917129 0 0 Z " fill="#169CC0" transform="translate(61,52)"/>
<path d="M0 0 C0.67466746 3.22754814 1.33830569 6.45726935 2 9.6875 C2.19078125 10.59951172 2.3815625 11.51152344 2.578125 12.45117188 C2.84882812 13.78051758 2.84882812 13.78051758 3.125 15.13671875 C3.29257812 15.94842529 3.46015625 16.76013184 3.6328125 17.59643555 C4.0153713 20.10061865 4.06298509 22.47075502 4 25 C-5.36904419 20.98167405 -13.04949696 10.07059245 -19 2 C-17.14718166 1.6592518 -15.29265605 1.32778217 -13.4375 1 C-12.40496094 0.814375 -11.37242188 0.62875 -10.30859375 0.4375 C-6.83529403 -0.0217793 -3.49942416 -0.07060629 0 0 Z " fill="#2CA0C3" transform="translate(47,106)"/>
<path d="M0 0 C1 3 1 3 0.24316406 4.79345703 C-0.16192383 5.44169434 -0.56701172 6.08993164 -0.984375 6.7578125 C-1.42523438 7.46550781 -1.86609375 8.17320313 -2.3203125 8.90234375 C-2.79210937 9.63582031 -3.26390625 10.36929688 -3.75 11.125 C-4.20632812 11.86621094 -4.66265625 12.60742188 -5.1328125 13.37109375 C-8.61138996 18.87046332 -8.61138996 18.87046332 -12 20 C-13.99291992 19.56274414 -13.99291992 19.56274414 -16.23046875 18.78515625 C-17.03291016 18.51123047 -17.83535156 18.23730469 -18.66210938 17.95507812 C-19.49548828 17.66052734 -20.32886719 17.36597656 -21.1875 17.0625 C-22.03248047 16.77181641 -22.87746094 16.48113281 -23.74804688 16.18164062 C-25.83495229 15.46242463 -27.91859994 14.7349657 -30 14 C-26.84692592 11.40902457 -23.68150326 9.86729302 -19.921875 8.30078125 C-18.76171875 7.81416016 -17.6015625 7.32753906 -16.40625 6.82617188 C-15.1996875 6.32666016 -13.993125 5.82714844 -12.75 5.3125 C-11.51541009 4.79673808 -10.28103267 4.28046722 -9.046875 3.76367188 C-6.03330242 2.50409271 -3.01766 1.24974759 0 0 Z " fill="#33B2E4" transform="translate(60,52)"/>
<path d="M0 0 C0.33 0.99 0.66 1.98 1 3 C2.76324386 3.63018192 2.76324386 3.63018192 5 4 C7.04524167 4.6622054 9.08505631 5.34126376 11.12109375 6.03125 C12.89516602 6.62873047 12.89516602 6.62873047 14.70507812 7.23828125 C17.18985401 8.07824212 19.67423071 8.9193848 22.15820312 9.76171875 C23.34220703 10.16003906 24.52621094 10.55835938 25.74609375 10.96875 C26.82560303 11.33419922 27.9051123 11.69964844 29.01733398 12.07617188 C31.6736317 12.89891318 34.26441657 13.516151 37 14 C37 14.33 37 14.66 37 15 C28.4422574 14.42545191 19.93008164 13.57972946 11.41015625 12.609375 C4.56863704 11.83201977 -2.2784074 11.10605124 -9.125 10.375 C-11.02197632 10.17221436 -11.02197632 10.17221436 -12.95727539 9.96533203 C-15.97148422 9.64324714 -18.98572474 9.32146257 -22 9 C-22 8.67 -22 8.34 -22 8 C-16.06 6.68 -10.12 5.36 -4 4 C-6.64 3.34 -9.28 2.68 -12 2 C-12 1.67 -12 1.34 -12 1 C-8.04 1.33 -4.08 1.66 0 2 C0 1.34 0 0.68 0 0 Z " fill="#157992" transform="translate(81,133)"/>
<path d="M0 0 C0.33 0 0.66 0 1 0 C1.98305095 8.57925302 2.12065202 17.05863557 2.0625 25.6875 C2.05798828 26.97333984 2.05347656 28.25917969 2.04882812 29.58398438 C2.03716001 32.72270653 2.02079015 35.86132728 2 39 C-1.0338458 35.10467845 -3.15762068 31.04877343 -5.3125 26.625 C-5.69728516 25.8825 -6.08207031 25.14 -6.47851562 24.375 C-8.20855052 20.80778779 -9.14658937 18.84184183 -8.453125 14.859375 C-6.85939421 11.72332408 -5.22854816 8.65370357 -3.4375 5.625 C-2.81746094 4.56539062 -2.19742188 3.50578125 -1.55859375 2.4140625 C-0.78708984 1.21910156 -0.78708984 1.21910156 0 0 Z " fill="#79D3F6" transform="translate(172,165)"/>
<path d="M0 0 C5.27315333 0.4452885 10.01770224 1.08373163 15 3 C13.14716918 7.09080063 10.61812645 10.7196161 8.125 14.4375 C7.69058594 15.09298828 7.25617187 15.74847656 6.80859375 16.42382812 C4.35890342 20.09100719 1.81720633 23.59969747 -1 27 C-1.13534286 17.94706663 -0.75741925 9.02140429 0 0 Z " fill="#106C84" transform="translate(50,159)"/>
<path d="M0 0 C9.28582994 -0.44218238 17.92981571 1.23226107 27 3 C24.38158129 5.61841871 22.28412235 5.81850937 18.6875 6.625 C17.55699219 6.88539063 16.42648438 7.14578125 15.26171875 7.4140625 C9.90426676 8.37647902 9.90426676 8.37647902 7 8 C4.98046875 6.50390625 4.98046875 6.50390625 3.1875 4.5625 C2.58292969 3.92441406 1.97835937 3.28632813 1.35546875 2.62890625 C0 1 0 1 0 0 Z " fill="#38B5E1" transform="translate(52,133)"/>
<path d="M0 0 C1.72926874 0.31193464 3.45841044 0.62457362 5.1875 0.9375 C6.15042969 1.11152344 7.11335938 1.28554687 8.10546875 1.46484375 C10.74239972 1.9523735 13.3719905 2.46671105 16 3 C16 3.33 16 3.66 16 4 C11.05 3.67 6.1 3.34 1 3 C0.67 2.01 0.34 1.02 0 0 Z " fill="#5CCAFD" transform="translate(65,162)"/>
</svg>
